<svg xmlns="http://www.w3.org/2000/svg" width="18" height="18" viewBox="0 0 18 18">
  <path id="Path_1387" data-name="Path 1387" d="M32.59,14.325a3.023,3.023,0,0,1-1.074-1.157A10.912,10.912,0,0,1,30.4,7.876c0-.007,0-.014,0-.02a5.212,5.212,0,0,0-3.8-4.632V2.005A2.317,2.317,0,0,0,24.066,0h-.21a2.317,2.317,0,0,0-2.53,2.005V3.224c-2.238.8-3.8,2.584-3.8,4.652a10.912,10.912,0,0,1-1.12,5.291,3.023,3.023,0,0,1-1.074,1.157.49.49,0,0,0-.356.583.667.667,0,0,0,.668.412h4.885C20.558,16.8,22.086,18,23.962,18s3.4-1.2,3.431-2.68h4.885a.667.667,0,0,0,.668-.412A.49.49,0,0,0,32.59,14.325ZM22.66,2.005a1.1,1.1,0,0,1,1.2-.949h.21a1.1,1.1,0,0,1,1.2.949v.876a8.126,8.126,0,0,0-2.6,0V2.005Zm1.3,14.938a1.935,1.935,0,0,1-2.1-1.624h4.2A1.935,1.935,0,0,1,23.962,16.944Zm2.684-2.68H17.164a5.371,5.371,0,0,0,.349-.485,10.968,10.968,0,0,0,1.346-5.9c0-2.23,2.289-4.043,5.1-4.043s5.1,1.814,5.1,4.045c0,.007,0,.013,0,.019a10.948,10.948,0,0,0,1.346,5.881,5.375,5.375,0,0,0,.349.485Z" transform="translate(-14.962)"/>
</svg>
