<svg id="shutter" xmlns="http://www.w3.org/2000/svg" width="25" height="25" viewBox="0 0 25 25">
  <g id="Group_77" data-name="Group 77">
    <g id="Group_76" data-name="Group 76">
      <path id="Path_1392" data-name="Path 1392" d="M12.5,0A12.5,12.5,0,1,0,25,12.5,12.514,12.514,0,0,0,12.5,0Zm0,23.958A11.458,11.458,0,1,1,23.958,12.5,11.472,11.472,0,0,1,12.5,23.958Z"/>
    </g>
  </g>
  <g id="Group_79" data-name="Group 79" transform="translate(9.421 16.667)">
    <g id="Group_78" data-name="Group 78">
      <path id="Path_1393" data-name="Path 1393" d="M97.07,146.773H83.484a.521.521,0,1,0,0,1.042H97.07a.521.521,0,0,0,0-1.042Z" transform="translate(-82.963 -146.773)"/>
    </g>
  </g>
  <g id="Group_81" data-name="Group 81" transform="translate(6.751 11.931)">
    <g id="Group_80" data-name="Group 80">
      <path id="Path_1394" data-name="Path 1394" d="M67.166,117.267l-6.737-11.931a.521.521,0,0,0-.907.514l6.736,11.931a.523.523,0,0,0,.454.265.514.514,0,0,0,.257-.068A.522.522,0,0,0,67.166,117.267Z" transform="translate(-59.454 -105.071)"/>
    </g>
  </g>
  <g id="Group_83" data-name="Group 83" transform="translate(2.554 7.292)">
    <g id="Group_82" data-name="Group 82">
      <path id="Path_1395" data-name="Path 1395" d="M30.092,64.281a.522.522,0,0,0-.709.2L22.562,76.562a.521.521,0,0,0,.2.71.529.529,0,0,0,.256.067.52.52,0,0,0,.453-.265l6.821-12.083A.521.521,0,0,0,30.092,64.281Z" transform="translate(-22.495 -64.214)"/>
    </g>
  </g>
  <g id="Group_85" data-name="Group 85" transform="translate(0.975 7.292)">
    <g id="Group_84" data-name="Group 84">
      <path id="Path_1396" data-name="Path 1396" d="M22.671,64.213H9.107a.521.521,0,0,0,0,1.042H22.67a.521.521,0,1,0,0-1.042Z" transform="translate(-8.586 -64.213)"/>
    </g>
  </g>
  <g id="Group_87" data-name="Group 87" transform="translate(10.476 0.093)">
    <g id="Group_86" data-name="Group 86">
      <path id="Path_1397" data-name="Path 1397" d="M99.967,13.009,93.233,1.084a.521.521,0,1,0-.907.514l6.733,11.925a.523.523,0,0,0,.454.265.514.514,0,0,0,.257-.068A.522.522,0,0,0,99.967,13.009Z" transform="translate(-92.258 -0.82)"/>
    </g>
  </g>
  <g id="Group_89" data-name="Group 89" transform="translate(14.583 4.597)">
    <g id="Group_88" data-name="Group 88">
      <path id="Path_1398" data-name="Path 1398" d="M136.037,40.548a.521.521,0,0,0-.71.2L128.5,52.814a.521.521,0,0,0,.907.514l6.831-12.07A.522.522,0,0,0,136.037,40.548Z" transform="translate(-128.428 -40.48)"/>
    </g>
  </g>
</svg>
